ply
format ascii 1.0
element vertex 62
property float32 x
property float32 y
property float32 z
element material 0
element face 60
property list uint8 int32 vertex_indices
end_header
0 0 -4 
2.894427061080933 2.102924108505249 -1.788854002952576 
-1.105573058128357 3.402604103088379 -1.788854956626892 
-3.577708959579468 -0 -1.788854956626892 
-1.105573058128357 -3.402602910995483 -1.788854002952576 
2.894427061080933 -2.102925062179565 -1.788854002952576 
3.577708959579468 0 1.788854956626892 
1.105573058128357 3.402602910995483 1.788854002952576 
-2.894428014755249 2.102924108505249 1.788854956626892 
-2.894427061080933 -2.102925062179565 1.788854002952576 
1.105573058128357 -3.402602910995483 1.788854002952576 
0 0 4 
-0.6498389840126038 2 -3.402602910995483 
1.051462054252625 3.2360680103302 -2.102924108505249 
1.70130205154419 1.2360680103302 -3.402602910995483 
0.7503700256347656 2.309401035308838 -3.17861795425415 
-2.102924108505249 -0 -3.402602910995483 
-2.752763986587524 2 -2.102924108505249 
-1.964493989944458 1.427288055419922 -3.17861795425415 
-0.6498399972915649 -2 -3.402602910995483 
-2.752763986587524 -2 -2.102924108505249 
-1.964493989944458 -1.427288055419922 -3.17861795425415 
1.70130205154419 -1.2360680103302 -3.402602910995483 
1.051462054252625 -3.2360680103302 -2.102925062179565 
0.7503700256347656 -2.309401035308838 -3.17861795425415 
3.402602910995483 -0 -2.102924108505249 
2.428247928619385 -0 -3.17861795425415 
-0 4 0 
2.351140975952148 3.2360680103302 0 
1.214123964309692 3.73668909072876 -0.7503700256347656 
-3.804225921630859 1.2360680103302 0 
-2.351140975952148 3.2360680103302 0 
-3.17861795425415 2.309401035308838 -0.7503700256347656 
-2.351140975952148 -3.2360680103302 0 
-3.804225921630859 -1.2360680103302 0 
-3.17861795425415 -2.309401035308838 -0.7503700256347656 
2.351140975952148 -3.2360680103302 0 
0 -4 0 
1.214123964309692 -3.73668909072876 -0.7503700256347656 
3.804225921630859 1.2360680103302 0 
3.804225921630859 -1.2360680103302 0 
3.928987979888916 -0 -0.7503700256347656 
2.752763986587524 2 2.102924108505249 
3.17861795425415 2.309401035308838 0.7503700256347656 
-1.051462054252625 3.2360680103302 2.102924108505249 
-1.214123964309692 3.73668909072876 0.7503700256347656 
-3.402602910995483 -0 2.102924108505249 
-3.928987979888916 -0 0.7503700256347656 
-1.051462054252625 -3.2360680103302 2.102924108505249 
-1.214123964309692 -3.73668909072876 0.7503700256347656 
2.752763986587524 -2 2.102924108505249 
3.17861795425415 -2.309401035308838 0.7503700256347656 
0.6498389840126038 2 3.402602910995483 
2.102924108505249 0 3.402602910995483 
1.964493989944458 1.427288055419922 3.17861795425415 
-1.70130205154419 1.2360680103302 3.402602910995483 
-0.7503700256347656 2.309401035308838 3.17861795425415 
-1.70130205154419 -1.2360680103302 3.402602910995483 
-2.428247928619385 -0 3.17861795425415 
0.6498399972915649 -2 3.402602910995483 
-0.7503700256347656 -2.309401035308838 3.17861795425415 
1.964493989944458 -1.427288055419922 3.17861795425415 
4 14 0 12 15 
4 12 2 13 15 
4 13 1 14 15 
4 12 0 16 18 
4 16 3 17 18 
4 17 2 12 18 
4 16 0 19 21 
4 19 4 20 21 
4 20 3 16 21 
4 19 0 22 24 
4 22 5 23 24 
4 23 4 19 24 
4 22 0 14 26 
4 14 1 25 26 
4 25 5 22 26 
4 28 1 13 29 
4 13 2 27 29 
4 27 7 28 29 
4 31 2 17 32 
4 17 3 30 32 
4 30 8 31 32 
4 34 3 20 35 
4 20 4 33 35 
4 33 9 34 35 
4 37 4 23 38 
4 23 5 36 38 
4 36 10 37 38 
4 40 5 25 41 
4 25 1 39 41 
4 39 6 40 41 
4 39 1 28 43 
4 28 7 42 43 
4 42 6 39 43 
4 27 2 31 45 
4 31 8 44 45 
4 44 7 27 45 
4 30 3 34 47 
4 34 9 46 47 
4 46 8 30 47 
4 33 4 37 49 
4 37 10 48 49 
4 48 9 33 49 
4 36 5 40 51 
4 40 6 50 51 
4 50 10 36 51 
4 53 6 42 54 
4 42 7 52 54 
4 52 11 53 54 
4 52 7 44 56 
4 44 8 55 56 
4 55 11 52 56 
4 55 8 46 58 
4 46 9 57 58 
4 57 11 55 58 
4 57 9 48 60 
4 48 10 59 60 
4 59 11 57 60 
4 59 10 50 61 
4 50 6 53 61 
4 53 11 59 61 
