ply
format ascii 1.0
comment Automatically gnerated by model-converter
comment TextureFile None
element vertex 6
property float x
property float y
property float z
element face 8
property list uchar int vertex_indices
property list uchar float texcoord
property int texnumber
end_header
0.0 0.0 16.0
16.0 0.0 0.0
0.0 16.0 0.0
-16.0 0.0 0.0
0.0 -16.0 0.0
0.0 0.0 -16.0
3 1 2 0 6 0.75 0.5 0.5 1.0 0.5 0.5 0
3 2 3 0 6 0.5 1.0 0.25 0.5 0.5 0.5 0
3 3 4 0 6 0.25 0.5 0.5 1.0 0.5 0.5 0
3 0 4 1 6 0.5 0.5 0.5 1.0 0.75 0.5 0
3 5 2 1 6 1.0 0.5 0.5 1.0 0.75 0.5 0
3 5 3 2 6 1.0 0.5 1.25 0.5 0.5 1.0 0
3 5 4 3 6 1.0 0.5 0.5 1.0 1.25 0.5 0
3 5 1 4 6 1.0 0.5 0.75 0.5 0.5 1.0 0
